<svg id="visual" viewBox="0 0 900 900" width="900" height="900" xmlns="http://www.w3.org/2000/svg" xmlns:xlink="http://www.w3.org/1999/xlink" version="1.1"><rect width="900" height="900" fill="#ffffff"></rect><g><g transform="translate(456 529)"><path d="M0 -112.3L97.3 -56.1L97.3 56.1L0 112.3L-97.3 56.1L-97.3 -56.1Z" fill="none" stroke="#750ff5" stroke-width="2"></path></g><g transform="translate(816 148)"><path d="M0 -78L67.5 -39L67.5 39L0 78L-67.5 39L-67.5 -39Z" fill="none" stroke="#750ff5" stroke-width="2"></path></g><g transform="translate(198 250)"><path d="M0 -63L54.6 -31.5L54.6 31.5L0 63L-54.6 31.5L-54.6 -31.5Z" stroke="#750ff5" fill="none" stroke-width="2"></path></g><g transform="translate(34 878)"><path d="M0 -93L80.5 -46.5L80.5 46.5L0 93L-80.5 46.5L-80.5 -46.5Z" stroke="#750ff5" fill="none" stroke-width="2"></path></g></g></svg>